<?xml version="1.0" standalone="no"?>
<!DOCTYPE svg PUBLIC "-//W3C//DTD SVG 20010904//EN"
 "http://www.w3.org/TR/2001/REC-SVG-20010904/DTD/svg10.dtd">
<svg version="1.0" xmlns="http://www.w3.org/2000/svg"
 width="512.000000pt" height="512.000000pt" viewBox="0 0 512.000000 512.000000"
 preserveAspectRatio="xMidYMid meet">
<metadata>
Created by potrace 1.14, written by Peter Selinger 2001-2017
</metadata>
<g transform="translate(0.000000,512.000000) scale(0.100000,-0.100000)"
fill="#000000" stroke="none">
<path d="M355 4806 c-82 -25 -143 -79 -179 -156 l-21 -45 -2 -1512 c-3 -1507
-3 -1512 18 -1568 34 -92 118 -163 214 -181 21 -4 351 -7 734 -7 383 0 699 -1
702 -3 4 -2 3 -21 -2 -41 -4 -21 -11 -54 -14 -73 -3 -19 -12 -66 -20 -105 -8
-38 -17 -83 -20 -100 -3 -16 -11 -57 -18 -90 l-12 -59 -75 -3 c-122 -4 -213
-50 -267 -136 -41 -65 -51 -115 -49 -257 1 -126 2 -133 25 -151 23 -18 56 -19
1191 -19 1135 0 1168 1 1191 19 23 18 24 26 25 148 2 145 -10 203 -51 263 -33
48 -105 102 -157 119 -21 7 -70 13 -110 14 l-73 2 -12 60 c-7 33 -15 74 -18
90 -3 17 -12 62 -20 100 -8 39 -16 84 -19 100 -3 17 -9 51 -14 76 l-9 46 701
0 c386 0 719 3 740 7 22 3 51 13 65 21 14 8 36 18 47 24 32 15 82 80 104 136
18 49 19 94 19 1555 0 1475 -1 1506 -20 1557 -26 68 -95 137 -165 163 -54 20
-66 20 -2222 19 -1713 0 -2175 -3 -2207 -13z"/>
</g>
</svg>
